<svg width="360" height="800" viewBox="0 0 360 800" fill="none" xmlns="http://www.w3.org/2000/svg">
<rect width="360" height="800" rx="30" fill="#FCFCFC"/>
<path d="M186.669 344C161.717 344 141.596 362.356 140.339 385.44L127.631 401.182C126.043 403.111 127.631 406.222 130.411 406.222H140.339V424.889C140.339 431.796 146.229 437.333 153.576 437.333H160.195V456H206.525V426.818C222.212 419.849 233 404.978 233 387.556C233 363.538 212.35 344 186.669 344ZM213.541 384.88L200.569 388.116L210.099 397.138C212.416 399.253 212.416 402.862 210.099 405.04C207.783 407.218 203.944 407.218 201.694 405.04L192.031 396.08L188.655 408.276C187.861 411.324 184.551 413.067 181.441 412.258C178.198 411.449 176.344 408.4 177.205 405.413L180.713 393.156L167.674 396.453C164.497 397.262 161.188 395.52 160.393 392.471C159.533 389.547 161.386 386.436 164.629 385.689L177.602 382.516L168.071 373.431C165.754 371.316 165.754 367.769 168.071 365.529C170.388 363.351 174.226 363.351 176.477 365.529L186.074 374.489L189.515 362.293C190.31 359.307 193.553 357.564 196.597 358.311C199.907 359.12 201.76 362.169 200.966 365.218L197.458 377.413L210.43 374.116C213.674 373.369 216.917 375.111 217.777 378.222C218.571 381.084 216.718 384.133 213.541 384.88Z" fill="url(#paint0_linear_2_281)"/>
<defs>
<linearGradient id="paint0_linear_2_281" x1="242.138" y1="362.857" x2="119.728" y2="424.94" gradientUnits="userSpaceOnUse">
<stop stop-color="#4C34AC" stop-opacity="0.78"/>
<stop offset="1" stop-color="#B5FFED"/>
</linearGradient>
</defs>
</svg>
