<svg width="106" height="112" viewBox="0 0 106 112" fill="none" xmlns="http://www.w3.org/2000/svg">
<path d="M59.6694 0C34.7171 0 14.5964 18.3556 13.3389 41.44L0.631038 57.1822C-0.957439 59.1111 0.631038 62.2222 3.41087 62.2222H13.3389V80.8889C13.3389 87.7956 19.2295 93.3333 26.5762 93.3333H33.1948V112H79.5254V82.8178C95.2116 75.8489 106 60.9778 106 43.5556C106 19.5378 85.3498 0 59.6694 0ZM86.5412 40.88L73.5686 44.1156L83.0995 53.1378C85.416 55.2533 85.416 58.8622 83.0995 61.04C80.7829 63.2178 76.9441 63.2178 74.6938 61.04L65.0305 52.08L61.655 64.2756C60.8608 67.3244 57.5515 69.0667 54.4407 68.2578C51.1976 67.4489 49.3443 64.4 50.2048 61.4133L53.7126 49.1556L40.6739 52.4533C37.4969 53.2622 34.1876 51.52 33.3934 48.4711C32.5329 45.5467 34.3862 42.4356 37.6293 41.6889L50.6019 38.5156L41.071 29.4311C38.7545 27.3156 38.7545 23.7689 41.071 21.5289C43.3875 19.3511 47.2264 19.3511 49.4767 21.5289L59.0737 30.4889L62.5154 18.2933C63.3097 15.3067 66.5528 13.5644 69.5974 14.3111C72.9067 15.12 74.76 18.1689 73.9657 21.2178L70.4578 33.4133L83.4304 30.1156C86.6735 29.3689 89.9167 31.1111 90.7771 34.2222C91.5713 37.0844 89.7181 40.1333 86.5412 40.88Z" fill="url(#paint0_linear_2_284)"/>
<defs>
<linearGradient id="paint0_linear_2_284" x1="115.138" y1="18.8571" x2="-7.27151" y2="80.9395" gradientUnits="userSpaceOnUse">
<stop stop-color="#4C34AC" stop-opacity="0.78"/>
<stop offset="1" stop-color="#B5FFED"/>
</linearGradient>
</defs>
</svg>
